# ProBuilder 4.0.5
# https://unity3d.com/unity/features/worldbuilding/probuilder
# 23.03.2020 14:27:12

mtllib ./1x0.5x1.mtl
o 1x0.5x1

g Cube
v -0.5 -0.25 0.5
v 0.5 -0.25 0.5
v -0.5 0.25 0.5
v 0.5 0.25 0.5
v 0.5 -0.25 -0.5
v 0.5 0.25 -0.5
v -0.5 -0.25 -0.5
v -0.5 0.25 -0.5

vt 0 0
vt -1 0
vt 0 0.5
vt -1 0.5
vt 1 0
vt 1 0.5
vt 0 -1
vt 1 -1
vt -1 -1

vn 0 0 1
vn 1 0 0
vn 0 0 -1
vn -1 0 0
vn 0 1 0
vn 0 -1 0

g Cube
usemtl ProBuilderDefault
f 1/1/1 2/2/1 3/3/1
f 2/2/1 4/4/1 3/3/1
f 2/1/2 5/2/2 4/3/2
f 5/2/2 6/4/2 4/3/2
f 5/5/3 7/1/3 6/6/3
f 7/1/3 8/3/3 6/6/3
f 7/5/4 1/1/4 8/6/4
f 1/1/4 3/3/4 8/6/4
f 3/1/5 4/5/5 8/7/5
f 4/5/5 6/8/5 8/7/5
f 7/7/6 5/9/6 1/1/6
f 5/9/6 2/2/6 1/1/6

